<svg width="24" height="25" viewBox="0 0 24 25" fill="none" xmlns="http://www.w3.org/2000/svg">
<path d="M11.999 7.98412C10.7726 7.98412 9.59651 8.4796 8.72934 9.36157C7.86217 10.2435 7.375 11.4397 7.375 12.687C7.375 13.9343 7.86217 15.1305 8.72934 16.0125C9.59651 16.8944 10.7726 17.3899 11.999 17.3899C13.2254 17.3899 14.4015 16.8944 15.2687 16.0125C16.1358 15.1305 16.623 13.9343 16.623 12.687C16.623 11.4397 16.1358 10.2435 15.2687 9.36157C14.4015 8.4796 13.2254 7.98412 11.999 7.98412ZM11.999 15.7413C11.2023 15.7413 10.4382 15.4194 9.87485 14.8464C9.31149 14.2734 8.995 13.4963 8.995 12.686C8.995 11.8757 9.31149 11.0986 9.87485 10.5256C10.4382 9.95264 11.2023 9.63074 11.999 9.63074C12.7957 9.63074 13.5598 9.95264 14.1231 10.5256C14.6865 11.0986 15.003 11.8757 15.003 12.686C15.003 13.4963 14.6865 14.2734 14.1231 14.8464C13.5598 15.4194 12.7957 15.7413 11.999 15.7413Z" fill="#FFFFFF"/>
<path d="M16.806 8.90761C17.4014 8.90761 17.884 8.41674 17.884 7.81122C17.884 7.20569 17.4014 6.71482 16.806 6.71482C16.2107 6.71482 15.728 7.20569 15.728 7.81122C15.728 8.41674 16.2107 8.90761 16.806 8.90761Z" fill="#FFFFFF"/>
<path d="M20.533 6.69652C20.3015 6.0885 19.9477 5.53633 19.4943 5.07538C19.041 4.61442 18.4979 4.25482 17.9 4.0196C17.2003 3.75248 16.4612 3.60804 15.714 3.59244C14.751 3.54972 14.446 3.53751 12.004 3.53751C9.56201 3.53751 9.24901 3.53751 8.29401 3.59244C7.5474 3.60724 6.80877 3.75171 6.11001 4.0196C5.51195 4.25455 4.96878 4.61405 4.51535 5.07504C4.06192 5.53603 3.70824 6.08834 3.47701 6.69652C3.21432 7.40807 3.07263 8.15991 3.05801 8.91982C3.01501 9.89824 3.00201 10.2084 3.00201 12.6931C3.00201 15.1768 3.00201 15.4931 3.05801 16.4664C3.07301 17.2272 3.21401 17.9778 3.47701 18.6908C3.70889 19.2987 4.06291 19.8508 4.51645 20.3117C4.96999 20.7727 5.51308 21.1323 6.11101 21.3677C6.80845 21.6455 7.54739 21.8003 8.29601 21.8254C9.25901 21.8681 9.56401 21.8813 12.006 21.8813C14.448 21.8813 14.761 21.8813 15.716 21.8254C16.4631 21.8099 17.2022 21.6658 17.902 21.3992C18.4998 21.1634 19.0426 20.8035 19.496 20.3424C19.9493 19.8814 20.3032 19.3292 20.535 18.7213C20.798 18.0093 20.939 17.2587 20.954 16.498C20.997 15.5196 21.01 15.2093 21.01 12.7247C21.01 10.24 21.01 9.92468 20.954 8.95135C20.9424 8.18069 20.7999 7.41787 20.533 6.69652ZM19.315 16.3912C19.3086 16.9773 19.2034 17.558 19.004 18.108C18.8538 18.5035 18.6239 18.8626 18.3291 19.1624C18.0342 19.4621 17.681 19.6957 17.292 19.8482C16.7572 20.05 16.1924 20.157 15.622 20.1645C14.672 20.2092 14.404 20.2204 11.968 20.2204C9.53001 20.2204 9.28101 20.2204 8.31301 20.1645C7.74294 20.1574 7.17834 20.0504 6.64401 19.8482C6.2537 19.6966 5.89902 19.4634 5.6029 19.1637C5.30679 18.8639 5.07585 18.5042 4.92501 18.108C4.72846 17.5639 4.62333 16.9901 4.61401 16.4105C4.57101 15.4443 4.56101 15.1717 4.56101 12.6941C4.56101 10.2156 4.56101 9.96231 4.61401 8.97678C4.62048 8.39097 4.72567 7.81063 4.92501 7.26099C5.23001 6.45852 5.85501 5.82693 6.64401 5.51977C7.1786 5.31854 7.74304 5.21157 8.31301 5.20347C9.26401 5.15973 9.53101 5.14753 11.968 5.14753C14.405 5.14753 14.655 5.14753 15.622 5.20347C16.1924 5.21044 16.7574 5.31745 17.292 5.51977C17.6809 5.67261 18.0342 5.90646 18.329 6.20632C18.6238 6.50618 18.8537 6.86542 19.004 7.26099C19.2006 7.80507 19.3057 8.3789 19.315 8.95847C19.358 9.9257 19.369 10.1973 19.369 12.6758C19.369 15.1534 19.369 15.4199 19.326 16.3922H19.315V16.3912Z" fill="#FFFFFF"/>
</svg>
